<svg width="512" height="512" viewBox="0 0 512 512" fill="none" xmlns="http://www.w3.org/2000/svg">
  <rect width="512" height="512" rx="256" fill="#F7931A"/>
  <path d="M346.4 256C346.4 242.6 336.6 232.1 323.1 228.5C333 224.2 339.6 214.5 339.6 202.8C339.6 185.4 325.4 173 305.3 171.1L305.3 146H286L286 170.4C281.7 170.4 277.3 170.6 272.9 170.8L272.9 146H253.6L253.6 170.8C246.2 171.2 229 170.8 229 170.8L229 191.5C229 191.5 243.2 191.5 242.8 191.5C249.5 191.5 251.7 195.2 252.5 198.9L252.5 230.3V282.7C252.2 285.1 250.8 289.4 245.8 289.4C246.2 289.4 232 289.4 232 289.4L229 313H252.5L272.9 313L272.9 338H292.2L292.2 313.6C296.9 313.9 301.5 314 305.9 314L305.9 338H325.2L325.2 313C351.1 311 369 299.6 369 276.6C369 262.9 359.9 252.7 346.4 256ZM266 193.1L266 193.1H293.5C303.4 193.1 310.9 198.4 310.9 208.1C310.9 218.1 303.4 223.8 293.5 223.8H266L266 193.1ZM299.5 291.3H266L266 257H299.5C311.3 257 318.3 262.9 318.3 274.3C318.3 285.7 311.3 291.3 299.5 291.3Z" fill="white"/>
</svg>