<svg width="512" height="512" viewBox="0 0 512 512" fill="none" xmlns="http://www.w3.org/2000/svg">
  <rect width="512" height="512" rx="256" fill="#14F195"/>
  <path d="M200.9 335.8L159 309.3C156.4 307.8 154.7 305 154.7 301.9V249.7C154.7 246.6 156.4 243.9 159 242.3L200.9 215.8C203.5 214.2 206.9 214.2 209.5 215.8L251.4 242.3C254 243.9 255.7 246.7 255.7 249.7V301.9C255.7 304.9 254 307.8 251.4 309.3L209.5 335.8C208.2 336.6 206.6 337 205 337C203.4 337 201.9 336.6 200.9 335.8Z" fill="#000"/>
  <path d="M318 261.8L169 172.2C166.4 170.7 166.4 166.8 169 165.3L318 75.7C320.6 74.2 324 74.2 326.6 75.7L386 110.6C388.6 112.1 388.6 116 386 117.5L229 206.6C228 207.2 228 208.6 229 209.2L386 298.2C388.6 299.7 388.6 303.6 386 305.1L326.6 340.1C325.6 340.7 324.3 341 323 341C321.7 341 320.4 340.7 319.3 340.1C319.3 340.2 318 261.8 318 261.8Z" fill="#000"/>
  <path d="M318 373.1L261.9 340.1C259.3 338.6 259.3 334.7 261.9 333.2L321.3 298.2C323.9 296.7 327.3 296.7 329.9 298.2L386 331.3C388.6 332.8 388.6 336.7 386 338.2L326.6 373.1C325.6 373.7 324.3 374 323 374C321.7 374 320 373.7 318 373.1Z" fill="#000"/>
</svg>