<svg width="512" height="512" viewBox="0 0 512 512" fill="none" xmlns="http://www.w3.org/2000/svg">
  <rect width="512" height="512" rx="256" fill="#23292F"/>
  <path d="M370 209.6C365.2 206.8 359.3 206.8 354.1 209.6L279.8 252.8L232.3 279.9L158 323.1C153.2 325.9 147.3 325.9 142.1 323.1L94 295.1C89.2 292.3 86 287.1 86 281.3V226C86 220.2 89.2 215 94 212.2L142.1 184.2C146.9 181.4 152.8 181.4 158 184.2L206.1 212.2C210.9 215 214.1 220.2 214.1 226V269.2L261.6 242.1V198.9C261.6 193.1 258.4 188 253.6 185.1L158.4 130.1C153.6 127.3 147.7 127.3 142.5 130.1L46.4 185.1C41.6 188 38.4 193.1 38.4 198.9V308.4C38.4 314.2 41.6 319.4 46.4 322.2L142.5 377.2C147.3 380 153.2 380 158.4 377.2L232.7 334.5L280.2 307.4L354.5 264.7C359.3 261.9 365.2 261.9 370.4 264.7L418.5 292.7C423.3 295.5 426.5 300.7 426.5 306.5V361.8C426.5 367.6 423.3 372.8 418.5 375.6L370.4 403.6C365.6 406.4 359.7 406.4 354.5 403.6L306.4 375.6C301.6 372.8 298.4 367.6 298.4 361.8V318.6L250.9 345.7V388.9C250.9 394.7 254.1 399.9 258.9 402.7L355 457.7C359.8 460.5 365.7 460.5 370.9 457.7L467 402.7C471.8 399.9 475 394.7 475 388.9V279.4C475 273.6 471.8 268.5 467 265.6L370 209.6Z" fill="white"/>
</svg>